<svg width="45" height="13" viewBox="0 0 45 13" fill="none" xmlns="http://www.w3.org/2000/svg">
<path d="M0.104 1.076H2.616V10.388H8.184V12.5H0.104V1.076ZM11.6044 6.836C11.6044 8.74 12.4524 10.66 14.7084 10.66C16.9644 10.66 17.8124 8.74 17.8124 6.836C17.8124 4.836 16.9644 2.916 14.7084 2.916C12.4524 2.916 11.6044 4.836 11.6044 6.836ZM9.09238 6.836C9.09238 3.444 11.1884 0.804 14.7084 0.804C18.2284 0.804 20.3244 3.444 20.3244 6.836C20.3244 10.164 18.2284 12.756 14.7084 12.756C11.1884 12.756 9.09238 10.164 9.09238 6.836ZM30.2975 11.204C29.4015 12.356 28.2655 12.756 27.1615 12.756C23.6415 12.756 21.5455 10.164 21.5455 6.836C21.5455 3.444 23.6415 0.804 27.1615 0.804C29.5135 0.804 31.7215 2.228 31.9775 4.836H29.5775C29.2735 3.556 28.3775 2.916 27.1615 2.916C24.9055 2.916 24.0575 4.836 24.0575 6.836C24.0575 8.74 24.9055 10.66 27.1615 10.66C28.8255 10.66 29.7375 9.796 29.8815 8.196H27.3535V6.324H32.1535V12.5H30.5535L30.2975 11.204ZM36.1981 6.836C36.1981 8.74 37.0461 10.66 39.3021 10.66C41.5581 10.66 42.4061 8.74 42.4061 6.836C42.4061 4.836 41.5581 2.916 39.3021 2.916C37.0461 2.916 36.1981 4.836 36.1981 6.836ZM33.6861 6.836C33.6861 3.444 35.7821 0.804 39.3021 0.804C42.8221 0.804 44.9181 3.444 44.9181 6.836C44.9181 10.164 42.8221 12.756 39.3021 12.756C35.7821 12.756 33.6861 10.164 33.6861 6.836Z" fill="#E7AB21"/>
</svg>
